HIERARCHY
ROOT hip
{
  OFFSET 0 0 0
  CHANNELS 6 Xposition Yposition Zposition Zrotation Yrotation Xrotation
  JOINT abdomen
  {
    OFFSET 0 20.6881 -0.73152
    CHANNELS 3 Zrotation Xrotation Yrotation
    JOINT chest
    {
      OFFSET 0 11.7043 -0.48768
      CHANNELS 3 Zrotation Xrotation Yrotation
      JOINT neck
      {
        OFFSET 0 22.1894 -2.19456
        CHANNELS 3 Zrotation Xrotation Yrotation
        JOINT head
        {
          OFFSET -0.24384 7.07133 1.2192
          CHANNELS 3 Zrotation Xrotation Yrotation
          JOINT leftEye
          {
            OFFSET 4.14528 8.04674 8.04672
            CHANNELS 3 Zrotation Xrotation Yrotation
            End Site
            {
              OFFSET 1 0 0
            }
          }
          JOINT rightEye
          {
            OFFSET -3.6576 8.04674 8.04672
            CHANNELS 3 Zrotation Xrotation Yrotation
            End Site
            {
              OFFSET 1 0 0
            }
          }
        }
      }
      JOINT rCollar
      {
        OFFSET -2.68224 19.2634 -4.8768
        CHANNELS 3 Zrotation Xrotation Yrotation
        JOINT rShldr
        {
          OFFSET -8.77824 -1.95073 1.46304
          CHANNELS 3 Zrotation Xrotation Yrotation
          JOINT rForeArm
          {
            OFFSET -28.1742 -1.7115 0.48768
            CHANNELS 3 Zrotation Xrotation Yrotation
            JOINT rHand
            {
              OFFSET -22.5879 0.773209 7.07136
              CHANNELS 3 Zrotation Xrotation Yrotation
              JOINT rThumb1
              {
                OFFSET -1.2192 -0.487915 3.41376
                CHANNELS 3 Zrotation Xrotation Yrotation
                JOINT rThumb2
                {
                  OFFSET -3.37035 -0.52449 3.41376
                  CHANNELS 3 Zrotation Xrotation Yrotation
                  End Site
                  {
                    OFFSET -1.78271 -1.18214 1.43049
                  }
                }
              }
              JOINT rIndex1
              {
                OFFSET -7.75947 0.938293 5.60832
                CHANNELS 3 Zrotation Xrotation Yrotation
                JOINT rIndex2
                {
                  OFFSET -2.54057 -0.884171 1.56538
                  CHANNELS 3 Zrotation Xrotation Yrotation
                  End Site
                  {
                    OFFSET -1.62519 -0.234802 1.16502
                  }
                }
              }
              JOINT rMid1
              {
                OFFSET -8.24714 1.18213 3.41376
                CHANNELS 3 Zrotation Xrotation Yrotation
                JOINT rMid2
                {
                  OFFSET -3.10165 -0.590103 1.0647
                  CHANNELS 3 Zrotation Xrotation Yrotation
                  End Site
                  {
                    OFFSET -2.48547 -0.328903 0.83742
                  }
                }
              }
              JOINT rRing1
              {
                OFFSET -8.82822 0.546677 1.51678
                CHANNELS 3 Zrotation Xrotation Yrotation
                JOINT rRing2
                {
                  OFFSET -2.60934 -0.819778 -0.0198488
                  CHANNELS 3 Zrotation Xrotation Yrotation
                  End Site
                  {
                    OFFSET -2.33842 -0.294052 0.168128
                  }
                }
              }
              JOINT rPinky1
              {
                OFFSET -8.27202 -0.0477905 -0.4584
                CHANNELS 3 Zrotation Xrotation Yrotation
                JOINT rPinky2
                {
                  OFFSET -1.82734 -0.647385 -0.700984
                  CHANNELS 3 Zrotation Xrotation Yrotation
                  End Site
                  {
                    OFFSET -1.69225 -0.51767 -0.607171
                  }
                }
              }
            }
          }
        }
      }
      JOINT lCollar
      {
        OFFSET 2.68224 19.2634 -4.8768
        CHANNELS 3 Zrotation Xrotation Yrotation
        JOINT lShldr
        {
          OFFSET 8.77824 -1.95073 1.46304
          CHANNELS 3 Zrotation Xrotation Yrotation
          JOINT lForeArm
          {
            OFFSET 28.1742 -1.7115 0.48768
            CHANNELS 3 Zrotation Xrotation Yrotation
            JOINT lHand
            {
              OFFSET 22.5879 0.773209 7.07136
              CHANNELS 3 Zrotation Xrotation Yrotation
              JOINT lThumb1
              {
                OFFSET 1.2192 -0.487915 3.41376
                CHANNELS 3 Zrotation Xrotation Yrotation
                JOINT lThumb2
                {
                  OFFSET 3.37035 -0.52449 3.41376
                  CHANNELS 3 Zrotation Xrotation Yrotation
                  End Site
                  {
                    OFFSET 1.78271 -1.18214 1.43049
                  }
                }
              }
              JOINT lIndex1
              {
                OFFSET 7.75947 0.938293 5.60832
                CHANNELS 3 Zrotation Xrotation Yrotation
                JOINT lIndex2
                {
                  OFFSET 2.54057 -0.884171 1.56538
                  CHANNELS 3 Zrotation Xrotation Yrotation
                  End Site
                  {
                    OFFSET 1.62519 -0.234802 1.16502
                  }
                }
              }
              JOINT lMid1
              {
                OFFSET 8.24714 1.18213 3.41376
                CHANNELS 3 Zrotation Xrotation Yrotation
                JOINT lMid2
                {
                  OFFSET 3.10165 -0.590103 1.0647
                  CHANNELS 3 Zrotation Xrotation Yrotation
                  End Site
                  {
                    OFFSET 2.48547 -0.328903 0.83742
                  }
                }
              }
              JOINT lRing1
              {
                OFFSET 8.82822 0.546677 1.51678
                CHANNELS 3 Zrotation Xrotation Yrotation
                JOINT lRing2
                {
                  OFFSET 2.60934 -0.819778 -0.0198488
                  CHANNELS 3 Zrotation Xrotation Yrotation
                  End Site
                  {
                    OFFSET 2.33842 -0.294052 0.168128
                  }
                }
              }
              JOINT lPinky1
              {
                OFFSET 8.27202 -0.0477905 -0.4584
                CHANNELS 3 Zrotation Xrotation Yrotation
                JOINT lPinky2
                {
                  OFFSET 1.82734 -0.647385 -0.700984
                  CHANNELS 3 Zrotation Xrotation Yrotation
                  End Site
                  {
                    OFFSET 1.69225 -0.51767 -0.607171
                  }
                }
              }
            }
          }
        }
      }
    }
  }
  JOINT rButtock
  {
    OFFSET -8.77824 4.35084 1.2192
    CHANNELS 3 Zrotation Xrotation Yrotation
    JOINT rThigh
    {
      OFFSET 0 -1.70687 -2.19456
      CHANNELS 3 Zrotation Xrotation Yrotation
      JOINT rShin
      {
        OFFSET 0 -36.8199 0.73152
        CHANNELS 3 Zrotation Xrotation Yrotation
        JOINT rFoot
        {
          OFFSET 0.73152 -45.1104 -5.12064
          CHANNELS 3 Zrotation Xrotation Yrotation
          End Site
          {
            OFFSET -1.1221 -3.69964 12.103
          }
        }
      }
    }
  }
  JOINT lButtock
  {
    OFFSET 8.77824 4.35084 1.2192
    CHANNELS 3 Zrotation Xrotation Yrotation
    JOINT lThigh
    {
      OFFSET 0 -1.70687 -2.19456
      CHANNELS 3 Zrotation Xrotation Yrotation
      JOINT lShin
      {
        OFFSET 0 -36.8199 0.73152
        CHANNELS 3 Zrotation Xrotation Yrotation
        JOINT lFoot
        {
          OFFSET -0.73152 -45.1104 -5.12064
          CHANNELS 3 Zrotation Xrotation Yrotation
          End Site
          {
            OFFSET 1.1221 -3.69964 12.103
          }
        }
      }
    }
  }
}
MOTION
Frames:	4
Frame Time:	0.03333
-3.650469991203863 59.88159942626953 30.932200014591217 -5.563800036907196 2.874300107359886 5.21510012447834 -0.2677610074169934 15.887200087308884 -4.40592996776104 5.097740069031715 -12.206300050020218 -0.6353410100564361 -6.232229992747307 14.787600338459015 -0.17950199777260423 12.658900022506714 -33.553399443626404 3.6039699241518974 0.0 0.0 0.0 0.0 0.0 0.0 0.0 0.0 0.0 13.026600033044815 40.43250113725662 69.47890162467957 -25.543298721313477 -22.314699590206146 54.96890187263489 -0.5196919944137335 20.064299404621124 2.942039966583252 2.199200821451086e-09 6.653237960563274e-09 4.169464773440268e-10 3.808153792306257e-09 1.153381390395225e-08 6.855316314613447e-10 2.199200821451086e-09 6.653237960563274e-09 4.169464773440268e-10 7.7309102565050125 5.474880114197731 0.41731400415301323 2.199200821451086e-09 6.653237960563274e-09 4.169464773440268e-10 2.905540131032467 0.9651830233633518 0.102901995414868 2.199200821451086e-09 6.653237960563274e-09 4.169464773440268e-10 10.27859978377819 0.7318009994924068 0.025912300043273717 2.199200821451086e-09 6.653237960563274e-09 4.169464773440268e-10 2.221670038998127 -0.733487019315362 -0.2089200052432716 0.0 0.0 0.0 7.614260315895081 7.741570025682449 -114.82900500297546 26.538800597190857 -45.167702436447144 -93.77779483795166 -0.04558270156849176 -0.4159000189974904 0.07629400002770126 1.9389290173421614e-09 4.519904450717149e-09 -1.8417267710901797e-10 3.3496405649202643e-09 7.814549007889582e-09 -3.3509195418446325e-10 1.9389290173421614e-09 4.519904450717149e-09 -1.8417267710901797e-10 -7.7309102565050125 5.474880114197731 -0.41731400415301323 1.9389290173421614e-09 4.519904450717149e-09 -1.8417267710901797e-10 -2.905540131032467 0.9651830233633518 -0.102901995414868 1.9389290173421614e-09 4.519904450717149e-09 -1.8417267710901797e-10 -10.27859978377819 0.7318009994924068 -0.025912300043273717 1.9389290173421614e-09 4.519904450717149e-09 -1.8417267710901797e-10 -2.221670038998127 -0.733487019315362 0.2089200052432716 0.0 0.0 0.0 -10.730000138282776 -52.70450055599213 -33.09300094842911 -1.9539200328290462 69.81240212917328 2.615409940481186 -7.359050139784813 -12.167200148105621 -20.089300274848938 0.0 0.0 0.0 20.690399408340454 -43.70689898729324 20.716399401426315 174.11399960517883 78.15629839897156 -175.19299864768982 3.207859955728054 -8.459009975194931 14.379499554634094
-3.7521699916687794 59.65869903564453 33.13690000772476 -5.802399963140488 -0.9962000045925379 5.026099942624569 -0.830146037042141 16.216899901628494 -3.4483900666236877 5.065209902822971 -12.511099576950073 -0.3958790050819516 -6.2863898277282715 14.525599479675293 0.6597909796983004 12.668699473142624 -32.847501039505005 5.248350128531456 0.0 0.0 0.0 0.0 0.0 0.0 0.0 0.0 0.0 5.5525800213217735 41.56469911336899 76.61460220813751 -25.857500731945038 -23.074499666690826 56.18290185928345 -0.4685939848423004 19.084500521421432 2.787050027400255 1.8589929595691501e-09 5.016147497372003e-09 3.836930773104541e-10 3.2230218494078144e-09 8.704716947249835e-09 6.343725544866174e-10 1.8589929595691501e-09 5.016147497372003e-09 3.836930773104541e-10 7.7309102565050125 5.474880114197731 0.41731400415301323 1.8589929595691501e-09 5.016147497372003e-09 3.836930773104541e-10 2.905540131032467 0.9651830233633518 0.102901995414868 1.8589929595691501e-09 5.016147497372003e-09 3.836930773104541e-10 10.27859978377819 0.7318009994924068 0.025912300043273717 1.8589929595691501e-09 5.016147497372003e-09 3.836930773104541e-10 2.221670038998127 -0.733487019315362 -0.2089200052432716 0.0 0.0 0.0 7.637849673628807 5.043289884924889 -112.54700303077698 26.845100820064545 -44.41789895296097 -92.2791051864624 0.16895100474357605 11.63450002670288 -1.6582100093364716 3.114948299298703e-09 7.001119683991419e-09 3.7346126191550866e-10 5.377458478506014e-09 1.2104237612220459e-08 6.164668775454629e-10 3.114948299298703e-09 7.001119683991419e-09 3.7346126191550866e-10 -7.7309102565050125 5.474880114197731 -0.41731400415301323 3.114948299298703e-09 7.001119683991419e-09 3.7346126191550866e-10 -2.905540131032467 0.9651830233633518 -0.102901995414868 3.114948299298703e-09 7.001119683991419e-09 3.7346126191550866e-10 -10.27859978377819 0.7318009994924068 -0.025912300043273717 3.114948299298703e-09 7.001119683991419e-09 3.7346126191550866e-10 -2.221670038998127 -0.733487019315362 0.2089200052432716 0.0 0.0 0.0 -8.866530060768127 -51.45680129528046 -31.406999230384827 -2.0309800654649734 70.5339002609253 2.7851000614464283 -7.463430315256119 -14.171900600194931 -18.986099660396576 0.0 0.0 0.0 23.089098930358887 -49.78959918022156 25.282799899578094 173.64999890327454 78.81900250911713 -174.42200303077698 3.3687499165534973 -8.585169687867165 13.301099985837936
-3.833069990214426 59.37649917602539 35.43059998750687 -6.011099964380264 -5.176799856126308 4.685199894011021 -1.21629998087883 16.609399616718292 -2.1806999668478966 4.722440019249916 -12.853800058364868 -0.08680899802129716 -6.165090277791023 14.152300357818604 1.4988799206912518 12.381000369787216 -31.76120102405548 6.763589680194855 0.0 0.0 0.0 0.0 0.0 0.0 0.0 0.0 0.0 -1.5461900644004345 41.904500126838684 83.5152018070221 -26.20090126991272 -23.97189974784851 57.718799114227295 -0.4515019850805402 18.721899390220642 2.7305400744080544 7.737810392427491e-11 8.031975085032173e-10 2.0719426174764521e-10 1.4004797321831575e-10 1.404316662956262e-09 3.5555558497435413e-10 7.737810392427491e-11 8.031975085032173e-10 2.0719426174764521e-10 7.7309102565050125 5.474880114197731 0.41731400415301323 7.737810392427491e-11 8.031975085032173e-10 2.0719426174764521e-10 2.905540131032467 0.9651830233633518 0.102901995414868 7.737810392427491e-11 8.031975085032173e-10 2.0719426174764521e-10 10.27859978377819 0.7318009994924068 0.025912300043273717 7.737810392427491e-11 8.031975085032173e-10 2.0719426174764521e-10 2.221670038998127 -0.733487019315362 -0.2089200052432716 0.0 0.0 0.0 7.508689910173416 2.888759896159172 -109.36500191688538 27.110899686813354 -43.725100457668304 -90.88370203971863 0.5617740098387003 20.261900424957275 -2.9706601426005363 1.0251000048810965e-09 2.4505197870894335e-09 -3.657874003692996e-10 1.7624302017793525e-09 4.233413619658677e-09 -6.305356237135129e-10 1.0251000048810965e-09 2.4505197870894335e-09 -3.657874003692996e-10 -7.7309102565050125 5.474880114197731 -0.41731400415301323 1.0251000048810965e-09 2.4505197870894335e-09 -3.657874003692996e-10 -2.905540131032467 0.9651830233633518 -0.102901995414868 1.0251000048810965e-09 2.4505197870894335e-09 -3.657874003692996e-10 -10.27859978377819 0.7318009994924068 -0.025912300043273717 1.0251000048810965e-09 2.4505197870894335e-09 -3.657874003692996e-10 -2.221670038998127 -0.733487019315362 0.2089200052432716 0.0 0.0 0.0 -7.156670093536377 -49.933499693870544 -29.619599282741547 -2.1422699466347694 71.4193993806839 2.9802000895142555 -7.524999752640724 -16.146899610757828 -18.130500465631485 0.0 0.0 0.0 26.773300766944885 -54.89690065383911 30.212399661540985 172.04599499702454 81.20180189609528 -172.5469994544983 3.223630003631115 -8.38114008307457 11.455800533294678
-3.8667699907091446 59.131500244140625 37.74740010499954 -6.216600090265274 -9.655000269412994 4.247199855744839 -1.6406799294054508 16.918699890375137 -0.6629390129819512 4.129159860312939 -13.210599571466446 0.2663830015808344 -5.923509746789932 13.760700523853302 2.322390004992485 11.931400448083878 -30.53590089082718 8.177819922566414 0.0 0.0 0.0 0.0 0.0 0.0 0.0 0.0 0.0 -7.688660100102425 41.93749934434891 89.46310222148895 -26.677401065826416 -25.31450092792511 59.78580057621002 -0.46598901506513357 19.033800065517426 2.7790699526667595 -1.1408474165364169e-09 -2.0258994481991976e-09 -5.013589543523267e-10 -1.977937813535391e-09 -3.5197444958612323e-09 -8.492406777804717e-10 -1.1408474165364169e-09 -2.0258994481991976e-09 -5.013589543523267e-10 7.7309102565050125 5.474880114197731 0.41731400415301323 -1.1408474165364169e-09 -2.0258994481991976e-09 -5.013589543523267e-10 2.905540131032467 0.9651830233633518 0.102901995414868 -1.1408474165364169e-09 -2.0258994481991976e-09 -5.013589543523267e-10 10.27859978377819 0.7318009994924068 0.025912300043273717 -1.1408474165364169e-09 -2.0258994481991976e-09 -5.013589543523267e-10 2.221670038998127 -0.733487019315362 -0.2089200052432716 0.0 0.0 0.0 7.243330255150795 3.2827599719166756 -105.68099856376648 27.275600731372833 -43.230299949645996 -89.93379771709442 0.9933390095829964 27.087599337100983 -4.121979922056198 -7.200640084192855e-10 -2.384012987022288e-09 -1.6191847862501163e-09 -1.2713030628219713e-09 -4.143885234952904e-09 -2.7779378797276877e-09 -7.200640084192855e-10 -2.384012987022288e-09 -1.6191847862501163e-09 -7.7309102565050125 5.474880114197731 -0.41731400415301323 -7.200640084192855e-10 -2.384012987022288e-09 -1.6191847862501163e-09 -2.905540131032467 0.9651830233633518 -0.102901995414868 -7.200640084192855e-10 -2.384012987022288e-09 -1.6191847862501163e-09 -10.27859978377819 0.7318009994924068 -0.025912300043273717 -7.200640084192855e-10 -2.384012987022288e-09 -1.6191847862501163e-09 -2.221670038998127 -0.733487019315362 0.2089200052432716 0.0 0.0 0.0 -5.781409665942192 -48.259597420692444 -27.775001227855682 -2.2618599236011505 72.26229965686798 3.1784099712967873 -7.538750097155571 -17.99849957227707 -17.473199665546417 0.0 0.0 0.0 31.51580035686493 -58.71490180492401 35.619301199913025 166.2689995765686 85.05840003490448 -166.5269958972931 2.8099500574171543 -7.254309877753258 9.384870305657387
